<svg width="45" height="45" viewBox="0 0 45 45" fill="none" xmlns="http://www.w3.org/2000/svg">
<path d="M43.5938 16.1719H27.4922L22.5 1.40625L17.5078 16.1719H1.40625L14.4141 25.3125L9.42187 40.0781L22.5 30.9375L35.5078 40.0781L30.5156 25.3125L43.5938 16.1719Z" fill="#FFCE31"/>
<path d="M32.4844 14.2734L35.2969 6.25781L27.9141 11.3203L28.9688 14.2734H32.4844ZM19.6172 35.1562L22.5 43.5937L25.3828 35.1562L22.5 33.1875L19.6172 35.1562ZM35.6484 24.1172L32.9766 25.9453L34.1016 29.3203H43.1719L35.6484 24.1172ZM17.0859 11.3203L9.70313 6.25781L12.5156 14.2734H16.0312L17.0859 11.3203ZM9.35156 24.1172L1.82812 29.3203H10.8984L12.0234 25.9453L9.35156 24.1172Z" fill="#FFDF85"/>
</svg>
